<svg width="161" height="30" viewBox="0 0 161 30" fill="none" xmlns="http://www.w3.org/2000/svg">
<path d="M1.43466 22V7.45455H6.8892C8.00663 7.45455 8.94413 7.66288 9.7017 8.07955C10.464 8.49621 11.0393 9.06913 11.4276 9.7983C11.8205 10.5227 12.017 11.3466 12.017 12.2699C12.017 13.2027 11.8205 14.0312 11.4276 14.7557C11.0346 15.4801 10.4545 16.0507 9.6875 16.4673C8.92045 16.8793 7.97585 17.0852 6.85369 17.0852H3.23864V14.919H6.49858C7.15199 14.919 7.68703 14.8054 8.10369 14.5781C8.52036 14.3509 8.82813 14.0384 9.02699 13.6406C9.23059 13.2429 9.33239 12.786 9.33239 12.2699C9.33239 11.7538 9.23059 11.2992 9.02699 10.9062C8.82813 10.5133 8.51799 10.2079 8.09659 9.99006C7.67992 9.76752 7.14252 9.65625 6.48438 9.65625H4.0696V22H1.43466ZM27.1029 14.7273C27.1029 16.2945 26.8094 17.6368 26.2222 18.7543C25.6398 19.867 24.8444 20.7192 23.8359 21.3111C22.8321 21.9029 21.6933 22.1989 20.4197 22.1989C19.146 22.1989 18.0049 21.9029 16.9964 21.3111C15.9926 20.7145 15.1971 19.8598 14.61 18.7472C14.0276 17.6297 13.7364 16.2898 13.7364 14.7273C13.7364 13.16 14.0276 11.8201 14.61 10.7074C15.1971 9.58996 15.9926 8.73532 16.9964 8.14347C18.0049 7.55161 19.146 7.25568 20.4197 7.25568C21.6933 7.25568 22.8321 7.55161 23.8359 8.14347C24.8444 8.73532 25.6398 9.58996 26.2222 10.7074C26.8094 11.8201 27.1029 13.16 27.1029 14.7273ZM24.4538 14.7273C24.4538 13.6241 24.2809 12.6937 23.9353 11.9361C23.5944 11.1738 23.1209 10.5985 22.5148 10.2102C21.9088 9.81723 21.2104 9.62074 20.4197 9.62074C19.629 9.62074 18.9306 9.81723 18.3245 10.2102C17.7184 10.5985 17.2426 11.1738 16.8969 11.9361C16.556 12.6937 16.3856 13.6241 16.3856 14.7273C16.3856 15.8305 16.556 16.7633 16.8969 17.5256C17.2426 18.2831 17.7184 18.8584 18.3245 19.2514C18.9306 19.6397 19.629 19.8338 20.4197 19.8338C21.2104 19.8338 21.9088 19.6397 22.5148 19.2514C23.1209 18.8584 23.5944 18.2831 23.9353 17.5256C24.2809 16.7633 24.4538 15.8305 24.4538 14.7273ZM29.394 22V7.45455H34.8486C35.966 7.45455 36.9035 7.64867 37.6611 8.03693C38.4234 8.42519 38.9987 8.9697 39.3869 9.67045C39.7799 10.3665 39.9764 11.1785 39.9764 12.1065C39.9764 13.0393 39.7776 13.849 39.3798 14.5355C38.9868 15.2173 38.4068 15.7453 37.6398 16.1193C36.8727 16.4886 35.9305 16.6733 34.8131 16.6733H30.9281V14.4858H34.458C35.1114 14.4858 35.6464 14.3958 36.0631 14.2159C36.4797 14.0312 36.7875 13.7637 36.9864 13.4134C37.19 13.0582 37.2918 12.6226 37.2918 12.1065C37.2918 11.5904 37.19 11.1501 36.9864 10.7855C36.7828 10.4162 36.4726 10.1368 36.056 9.94744C35.6393 9.75331 35.1019 9.65625 34.4438 9.65625H32.029V22H29.394ZM36.9082 15.4091L40.5091 22H37.5688L34.0318 15.4091H36.9082ZM41.5626 9.66335V7.45455H53.1678V9.66335H48.672V22H46.0584V9.66335H41.5626ZM57.2717 7.45455V8.90341C57.2717 9.32008 57.1912 9.75331 57.0303 10.2031C56.874 10.6482 56.6586 11.0743 56.3839 11.4815C56.1093 11.884 55.7968 12.2296 55.4464 12.5185L54.2533 11.7443C54.5137 11.3513 54.741 10.9276 54.9351 10.473C55.1292 10.0137 55.2263 9.49526 55.2263 8.91761V7.45455H57.2717ZM67.1871 11.4531C67.1209 10.8329 66.8415 10.3499 66.3491 10.0043C65.8614 9.65862 65.2269 9.4858 64.4457 9.4858C63.8964 9.4858 63.4253 9.56866 63.0323 9.73438C62.6393 9.90009 62.3387 10.125 62.1303 10.4091C61.922 10.6932 61.8155 11.0175 61.8107 11.3821C61.8107 11.6851 61.8794 11.9479 62.0167 12.1705C62.1587 12.393 62.3505 12.5824 62.592 12.7386C62.8335 12.8902 63.101 13.018 63.3945 13.1222C63.6881 13.2263 63.984 13.3139 64.2823 13.3849L65.646 13.7259C66.1952 13.8537 66.7231 14.0265 67.2298 14.2443C67.7411 14.4621 68.198 14.7367 68.6005 15.0682C69.0077 15.3996 69.3297 15.7997 69.5664 16.2685C69.8031 16.7372 69.9215 17.2865 69.9215 17.9162C69.9215 18.7685 69.7037 19.5189 69.2681 20.1676C68.8325 20.8116 68.2028 21.3158 67.3789 21.6804C66.5598 22.0402 65.5678 22.2202 64.4031 22.2202C63.2714 22.2202 62.2889 22.045 61.4556 21.6946C60.627 21.3442 59.9783 20.8329 59.5096 20.1605C59.0456 19.4882 58.7946 18.669 58.7567 17.7031H61.3491C61.387 18.2098 61.5432 18.6312 61.8178 18.9673C62.0924 19.3035 62.4499 19.5545 62.8903 19.7202C63.3353 19.8859 63.8325 19.9688 64.3817 19.9688C64.9547 19.9688 65.4566 19.8835 65.8874 19.7131C66.323 19.5379 66.6639 19.2964 66.9102 18.9886C67.1564 18.6761 67.2818 18.3116 67.2866 17.8949C67.2818 17.5161 67.1706 17.2036 66.9528 16.9574C66.735 16.7064 66.4296 16.4981 66.0366 16.3324C65.6483 16.1619 65.1938 16.0104 64.6729 15.8778L63.0181 15.4517C61.8202 15.1439 60.8732 14.6776 60.1772 14.0526C59.4859 13.4228 59.1403 12.5871 59.1403 11.5455C59.1403 10.6884 59.3723 9.93797 59.8363 9.29403C60.305 8.65009 60.9419 8.15057 61.7468 7.79545C62.5517 7.43561 63.4632 7.25568 64.4812 7.25568C65.5134 7.25568 66.4177 7.43561 67.1942 7.79545C67.9755 8.15057 68.5887 8.64536 69.0337 9.27983C69.4788 9.90956 69.7085 10.634 69.7227 11.4531H67.1871ZM88.7847 7.45455V22H86.4409L79.5872 12.0923H79.4665V22H76.8315V7.45455H79.1895L86.0361 17.3693H86.1639V7.45455H88.7847ZM100.625 7.45455H103.26V16.9574C103.26 17.9991 103.014 18.9152 102.521 19.706C102.033 20.4967 101.347 21.1146 100.461 21.5597C99.576 22 98.5415 22.2202 97.3577 22.2202C96.1693 22.2202 95.1324 22 94.2469 21.5597C93.3615 21.1146 92.675 20.4967 92.1873 19.706C91.6996 18.9152 91.4558 17.9991 91.4558 16.9574V7.45455H94.0907V16.7372C94.0907 17.3433 94.2233 17.883 94.4884 18.3565C94.7583 18.83 95.1371 19.2017 95.6248 19.4716C96.1125 19.7367 96.6901 19.8693 97.3577 19.8693C98.0254 19.8693 98.603 19.7367 99.0907 19.4716C99.5831 19.2017 99.9619 18.83 100.227 18.3565C100.492 17.883 100.625 17.3433 100.625 16.7372V7.45455ZM105.924 7.45455H109.148L113.466 17.9943H113.637L117.955 7.45455H121.179V22H118.651V12.0071H118.516L114.496 21.9574H112.607L108.587 11.9858H108.452V22H105.924V7.45455ZM123.849 22V7.45455H129.417C130.468 7.45455 131.342 7.62026 132.038 7.9517C132.738 8.27841 133.262 8.72585 133.607 9.29403C133.958 9.86222 134.133 10.5062 134.133 11.2259C134.133 11.8177 134.019 12.3243 133.792 12.7457C133.565 13.1624 133.259 13.5009 132.876 13.7614C132.492 14.0218 132.064 14.2088 131.59 14.3224V14.4645C132.106 14.4929 132.601 14.6515 133.075 14.9403C133.553 15.2244 133.943 15.6269 134.246 16.1477C134.549 16.6686 134.701 17.2983 134.701 18.0369C134.701 18.7898 134.519 19.4669 134.154 20.0682C133.79 20.6648 133.24 21.1359 132.506 21.4815C131.772 21.8272 130.849 22 129.737 22H123.849ZM126.484 19.7983H129.317C130.274 19.7983 130.963 19.616 131.384 19.2514C131.81 18.8821 132.023 18.4086 132.023 17.831C132.023 17.4001 131.917 17.0118 131.704 16.6662C131.491 16.3158 131.188 16.0412 130.795 15.8423C130.402 15.6387 129.933 15.5369 129.388 15.5369H126.484V19.7983ZM126.484 13.6406H129.09C129.545 13.6406 129.954 13.5578 130.319 13.392C130.683 13.2216 130.97 12.9825 131.178 12.6747C131.391 12.3622 131.498 11.9929 131.498 11.5668C131.498 11.0033 131.299 10.5393 130.901 10.1747C130.508 9.81013 129.924 9.62784 129.147 9.62784H126.484V13.6406ZM136.793 22V7.45455H146.253V9.66335H139.428V13.6122H145.763V15.821H139.428V19.7912H146.31V22H136.793ZM148.742 22V7.45455H154.196C155.314 7.45455 156.251 7.64867 157.009 8.03693C157.771 8.42519 158.346 8.9697 158.735 9.67045C159.128 10.3665 159.324 11.1785 159.324 12.1065C159.324 13.0393 159.125 13.849 158.727 14.5355C158.334 15.2173 157.754 15.7453 156.987 16.1193C156.22 16.4886 155.278 16.6733 154.161 16.6733H150.276V14.4858H153.806C154.459 14.4858 154.994 14.3958 155.411 14.2159C155.827 14.0312 156.135 13.7637 156.334 13.4134C156.538 13.0582 156.639 12.6226 156.639 12.1065C156.639 11.5904 156.538 11.1501 156.334 10.7855C156.13 10.4162 155.82 10.1368 155.404 9.94744C154.987 9.75331 154.45 9.65625 153.791 9.65625H151.377V22H148.742ZM156.256 15.4091L159.857 22H156.916L153.379 15.4091H156.256Z" fill="black"/>
</svg>
