<svg width="224" height="18" viewBox="0 0 224 18" fill="none" xmlns="http://www.w3.org/2000/svg">
<g clip-path="url(#clip0_3821_5458)">
<path d="M35.0742 3.6084H45.2398C47.1981 3.6084 48.7688 3.9382 49.9486 4.5944C51.125 5.2506 51.7165 6.308 51.7165 7.77C51.7165 8.6982 51.5295 9.4734 51.1521 10.099C50.7782 10.7246 50.1288 11.2074 49.2142 11.544C48.2963 11.884 47.0417 12.054 45.4438 12.054H40.1094V9.2218H44.91C45.2738 9.2116 45.573 9.1606 45.8007 9.0722C46.0285 8.9838 46.2019 8.8512 46.3175 8.6744C46.4331 8.4976 46.4909 8.246 46.4909 7.923C46.4909 7.5048 46.3685 7.2022 46.1237 7.0152C45.879 6.8282 45.4812 6.733 44.927 6.733H40.5004V14.553H35.0742V3.6084Z" fill="black"/>
<path d="M55.4768 14.1653C53.9911 13.7573 52.8861 13.1351 52.1619 12.2953C51.4378 11.4555 51.074 10.3845 51.074 9.0823C51.074 7.7801 51.4344 6.7261 52.1619 5.8931C52.8861 5.0601 53.9911 4.4345 55.4768 4.0231C56.9626 3.6117 58.8461 3.4043 61.1308 3.4043C63.4155 3.4043 65.3126 3.6117 66.7916 4.0231C68.2705 4.4345 69.3755 5.0567 70.0997 5.8931C70.8238 6.7261 71.1876 7.7903 71.1876 9.0823C71.1876 10.3743 70.8238 11.4555 70.0997 12.2953C69.3755 13.1351 68.2705 13.7573 66.7916 14.1653C65.3126 14.5733 63.4223 14.7739 61.1308 14.7739C58.8393 14.7739 56.9626 14.5699 55.4768 14.1653ZM63.7793 11.2787C64.4423 11.1155 64.925 10.8639 65.2344 10.5205C65.5438 10.1771 65.6968 9.6977 65.6968 9.0823C65.6968 8.4669 65.5438 8.0181 65.2344 7.6747C64.9284 7.3313 64.4423 7.0763 63.7793 6.9097C63.1163 6.7431 62.2323 6.6581 61.1274 6.6581C60.0224 6.6581 59.1283 6.7397 58.4755 6.8995C57.8227 7.0593 57.3433 7.3177 57.0305 7.6645C56.7178 8.0113 56.5614 8.4873 56.5614 9.0789C56.5614 9.6705 56.7178 10.1737 57.0305 10.5171C57.3433 10.8605 57.8261 11.1155 58.4755 11.2753C59.1249 11.4351 60.0122 11.5167 61.1274 11.5167C62.2425 11.5167 63.1163 11.4351 63.7793 11.2753V11.2787Z" fill="black"/>
<path d="M70.9666 3.6084H81.3668C82.8594 3.6084 84.0765 3.7138 85.0183 3.9212C85.9634 4.1286 86.6774 4.4754 87.1704 4.9616C87.66 5.4478 87.9048 6.1074 87.9048 6.9404C87.9048 7.566 87.7654 8.11 87.4832 8.5758C87.201 9.0416 86.7488 9.3986 86.1232 9.6536C85.4977 9.9086 84.6885 10.0378 83.6991 10.0378V10.2248C84.5321 10.2146 85.2155 10.286 85.7493 10.4424C86.2796 10.5988 86.7046 10.8368 87.0174 11.153C87.3302 11.4692 87.592 11.9078 87.7994 12.4586L88.5338 14.553H82.686L82.0774 12.598C81.9924 12.3056 81.8734 12.0778 81.717 11.9112C81.5606 11.7446 81.3634 11.6324 81.122 11.5746C80.8806 11.5168 80.5747 11.4896 80.2007 11.4896H76.369V14.5564H70.9734V3.6084H70.9666ZM82.0638 8.6812C82.3494 8.5078 82.4922 8.2426 82.4922 7.8754C82.4922 7.6136 82.4208 7.4232 82.2746 7.3042C82.1284 7.1852 81.9346 7.0968 81.6898 7.039C81.445 6.9812 81.1356 6.954 80.7582 6.954H76.3622V8.9396H80.68C81.3158 8.9396 81.7782 8.8546 82.0638 8.6812Z" fill="black"/>
<path d="M92.4096 7.1104H87.1874V3.6084H103.031V7.1104H97.8392V14.5564H92.413V7.1104H92.4096Z" fill="black"/>
<path d="M108.362 3.6084H113.414L122.155 9.9596L121.356 10.0548V3.6084H126.283V14.5564H121.261L112.598 8.0488L113.285 7.9876V14.5564H108.358V3.6084H108.362Z" fill="black"/>
<path d="M132.13 14.3592C130.849 14.0838 129.808 13.55 129.009 12.7646C128.21 11.9792 127.812 10.8708 127.812 9.4394V3.6084H133.225V9.2694C133.225 10.0514 133.511 10.6158 134.078 10.9592C134.646 11.3026 135.551 11.476 136.792 11.476C138.032 11.476 138.93 11.3026 139.511 10.9524C140.093 10.6022 140.389 10.0412 140.389 9.2694V3.6084H145.801V9.4428C145.801 10.8708 145.4 11.9826 144.598 12.7748C143.795 13.567 142.748 14.1008 141.453 14.3694C140.157 14.638 138.607 14.7774 136.792 14.7774C134.976 14.7774 133.412 14.638 132.13 14.3626V14.3592Z" fill="black"/>
<path d="M147.335 3.6084H156.11L158.564 11.1632H158.69L161.192 3.6084H169.825V14.5564H164.429V7.4096H164.177L161.658 14.5564H155.589L152.961 7.345H152.71V14.5564H147.331V3.6084H147.335Z" fill="black"/>
<path d="M171.419 3.6084H182.115C183.366 3.6084 184.41 3.6798 185.25 3.8192C186.09 3.9586 186.766 4.2374 187.283 4.6488C187.8 5.0602 188.058 5.6416 188.058 6.393C188.058 7.2464 187.759 7.8822 187.157 8.2936C186.559 8.705 185.777 8.9226 184.818 8.943V9.147C185.61 9.1572 186.287 9.232 186.851 9.3748C187.416 9.5176 187.864 9.7658 188.204 10.1262C188.544 10.4866 188.714 10.9796 188.714 11.6052C188.714 12.326 188.47 12.9074 187.98 13.3494C187.49 13.7914 186.773 14.1042 185.831 14.2878C184.886 14.4714 183.686 14.5598 182.227 14.5598H171.419V3.6084ZM176.159 11.9112H181.289C181.915 11.9112 182.363 11.8466 182.635 11.7174C182.907 11.5882 183.043 11.3706 183.043 11.068C183.043 10.7654 182.907 10.5342 182.635 10.4016C182.363 10.2724 181.911 10.2044 181.275 10.2044H176.522V7.8754H180.871C181.422 7.8754 181.826 7.8108 182.085 7.6782C182.34 7.549 182.469 7.3314 182.469 7.0288C182.469 6.7262 182.34 6.5018 182.078 6.3862C181.816 6.2706 181.422 6.2128 180.888 6.2128H176.165L176.822 5.3696V12.751L176.165 11.9078L176.159 11.9112Z" fill="black"/>
<path d="M190.013 3.6084H204.541V6.971H195.422V8.0182H204.119V10.099H195.422V11.1938H204.541V14.5564H190.013V3.6084Z" fill="black"/>
<path d="M205.826 3.6084H216.226C217.719 3.6084 218.936 3.7138 219.878 3.9212C220.823 4.1286 221.537 4.4754 222.03 4.9616C222.519 5.4478 222.764 6.1074 222.764 6.9404C222.764 7.566 222.625 8.11 222.343 8.5758C222.06 9.0416 221.608 9.3986 220.983 9.6536C220.357 9.9086 219.548 10.0378 218.558 10.0378V10.2248C219.391 10.2146 220.075 10.286 220.609 10.4424C221.139 10.5988 221.564 10.8368 221.877 11.153C222.19 11.4692 222.451 11.9078 222.659 12.4586L223.393 14.553H217.545L216.937 12.598C216.852 12.3056 216.733 12.0778 216.576 11.9112C216.42 11.7446 216.223 11.6324 215.981 11.5746C215.74 11.5168 215.434 11.4896 215.06 11.4896H211.228V14.5564H205.833V3.6084H205.826ZM216.92 8.6812C217.205 8.5078 217.348 8.2426 217.348 7.8754C217.348 7.6136 217.277 7.4232 217.13 7.3042C216.984 7.1852 216.791 7.0968 216.546 7.039C216.301 6.9812 215.992 6.954 215.614 6.954H211.218V8.9396H215.536C216.172 8.9396 216.634 8.8546 216.92 8.6812Z" fill="black"/>
<path d="M28.7119 6.6131L25.6826 1.3601C24.5607 -0.581296 18.3933 0.877303 11.9199 4.6207L9.88002 1.0915C3.39986 4.8349 -0.948572 9.4453 0.176785 11.3935L1.85292 14.2937C7.45931 10.4925 21.7422 1.8769 23.1089 4.1753C24.1017 5.8481 18.6483 9.2345 13.6641 11.8049C9.85962 13.7701 6.20816 14.9771 6.20816 14.9771C6.20816 14.9771 21.5382 8.2825 20.1442 5.9467C19.3453 4.6037 12.2361 8.1839 1.91752 14.3991L3.20947 16.6363C4.33143 18.5777 10.492 17.1259 16.979 13.3825L19.0087 16.9015C25.4888 13.1581 29.8305 8.5477 28.7119 6.6063V6.6131Z" fill="black"/>
</g>
<defs>
<clipPath id="clip0_3821_5458">
<rect width="223.402" height="17" fill="white" transform="translate(0 0.5)"/>
</clipPath>
</defs>
</svg>
